# xmcd
#
# Track frame offsets:
#	150
#	19035
#	34515
#	53590
#	74372
#	98057
#	116708
#	135717
#	151213
#
# Disc length: 2236 seconds
#
# Revision: 15
# Processed by: cddbd v1.5.2PL0 Copyright (c) Steve Scherf et al.
# Submitted via: Jack! The Knife 20 Magnifico
#
DISCID=6c08ba09
DTITLE=Children Of Bodom - Hate Crew Deathroll
DYEAR=2003
DGENRE=Metal
TTITLE0=Needled 24/7
TTITLE1=Sixpounder
TTITLE2=Chokehold (Cocked 'n' Loaded)
TTITLE3=Bodom Beach Terror
TTITLE4=Angels Don't Kill
TTITLE5=Triple Corpse Hammerblow
TTITLE6=You're Better Off Dead
TTITLE7=Lil' Bloodred Ridin' Hood
TTITLE8=Hate Crew Deathroll
EXTD=Anssi Kippo
EXTT0=Alexi Laiho
EXTT1=Alexi Laiho
EXTT2=Alexi Laiho
EXTT3=Alexi Laiho
EXTT4=Alexi Laiho
EXTT5=Alexi Laiho
EXTT6=Alexi Laiho
EXTT7=Laiho, Kuoppala
EXTT8=Alexi Laiho
PLAYORDER=
